<?xml version="1.0" encoding="UTF-8"?>
<svg width="70px" height="48px" viewBox="0 0 70 48" version="1.1" xmlns="http://www.w3.org/2000/svg" xmlns:xlink="http://www.w3.org/1999/xlink">
    <!-- Generator: Sketch 51.2 (57519) - http://www.bohemiancoding.com/sketch -->
    <title>Group 13</title>
    <desc>Created with Sketch.</desc>
    <defs></defs>
    <g id="Fabrick-v4" stroke="none" stroke-width="1" fill="none" fill-rule="evenodd">
        <g id="✅-Home-v4" transform="translate(-236.000000, -1136.000000)" fill-rule="nonzero">
            <g id="Group-2-Copy" transform="translate(214.000000, 1128.000000)">
                <g id="Group-13" transform="translate(22.000000, 8.000000)">
                    <path d="M41.2148785,37.4224991 L41,37.1319519 L58.7231772,24.5016932 L41.0085951,11.8714346 L41.2234736,11.5808874 C42.1781798,10.2495914 43.6265934,9.35084728 45.2489163,9.08309039 C46.8712391,8.8153335 48.5340393,9.20058619 49.8701838,10.1537878 L70,24.5016932 L49.8701838,38.8495987 C48.5332782,39.8005468 46.8711317,40.1844372 45.2495009,39.9167945 C43.6278701,39.6491518 42.1796324,38.7519068 41.2234736,37.4224991" id="Shape" fill="#0046AD"></path>
                    <path d="M0,48 L0,0 L44,24.0042246 L0,48 Z M6.5827451,10.9755325 L6.5827451,37.0329167 L30.4807843,24.0042246 L6.5827451,10.9755325 Z" id="Shape" fill="#009ADC"></path>
                </g>
            </g>
        </g>
    </g>
</svg>