<?xml version="1.0" encoding="UTF-8"?>
<svg width="64px" height="64px" viewBox="0 0 64 64" version="1.1" xmlns="http://www.w3.org/2000/svg" xmlns:xlink="http://www.w3.org/1999/xlink">
    <!-- Generator: Sketch 51.2 (57519) - http://www.bohemiancoding.com/sketch -->
    <title>Group 9</title>
    <desc>Created with Sketch.</desc>
    <defs></defs>
    <g id="Fabrick-v4" stroke="none" stroke-width="1" fill="none" fill-rule="evenodd">
        <g id="✅-Home-v4" transform="translate(-465.000000, -1128.000000)" fill-rule="nonzero">
            <g id="Group-2-Copy" transform="translate(214.000000, 1128.000000)">
                <g id="Group-9" transform="translate(251.000000, 0.000000)">
                    <path d="M6.79163598,31.5675676 C6.87689,19.0477284 16.1598477,8.50949653 28.5405405,6.87769983 L28.5405405,0 C12.3453612,1.59665918 0,15.2513769 0,31.5675676 C0,47.8837582 12.3453612,61.538476 28.5405405,63.1351351 L28.5405405,56.24848 C16.1598477,54.6166833 6.87689,44.0784514 6.79163598,31.5586122" id="Shape" fill="#0046AD"></path>
                    <path d="M35.3755347,0.186247753 C33.1040543,-0.0620825842 30.812021,-0.0620825842 28.5405405,0.186247753 L28.5405405,62.9513253 C30.8121991,63.1964051 33.1038761,63.1964051 35.3755347,62.9513253 C51.6183367,61.3640247 64,47.7893422 64,31.5687865 C64,15.3482309 51.6183367,1.77354834 35.3755347,0.186247753 M35.3755347,56.1139381 L35.3755347,7.02363492 C47.8274164,8.57227594 57.1709085,19.0926662 57.1709085,31.5643351 C57.1709085,44.036004 47.8274164,54.5563943 35.3755347,56.1050353" id="Shape" fill="#009ADC"></path>
                </g>
            </g>
        </g>
    </g>
</svg>