<?xml version="1.0" encoding="UTF-8"?>
<svg width="64px" height="64px" viewBox="0 0 64 64" version="1.1" xmlns="http://www.w3.org/2000/svg" xmlns:xlink="http://www.w3.org/1999/xlink">
    <!-- Generator: Sketch 51.2 (57519) - http://www.bohemiancoding.com/sketch -->
    <title>Group 11</title>
    <desc>Created with Sketch.</desc>
    <defs></defs>
    <g id="Fabrick-v4" stroke="none" stroke-width="1" fill="none" fill-rule="evenodd">
        <g id="✅-Home-v4" transform="translate(-464.000000, -1477.000000)" fill-rule="nonzero">
            <g id="Group-2-Copy" transform="translate(214.000000, 1128.000000)">
                <g id="Group-11" transform="translate(250.000000, 349.000000)">
                    <path d="M31.9485163,63.9999555 C26.82041,63.9994688 21.7685193,62.758475 17.2238192,60.382843 C2.86015226,52.9030906 -3.6504333,35.8703583 2.06166956,20.7162364 C7.77377243,5.56211459 23.9072763,-2.9346086 39.6341117,0.92867856 C55.3609472,4.79196572 65.7217232,19.796992 63.7627612,35.8730705 C61.8037992,51.949149 48.1428496,64.0267564 31.9485163,63.9999555 M20.9906022,53.1272149 C32.6736625,59.2127556 47.0777654,54.6752141 53.1638369,42.9920896 C59.2499084,31.3089651 54.7135033,16.903985 43.0312498,10.8168955 C31.3489963,4.72980595 16.9442921,9.26543779 10.8566718,20.9477553 C4.77427982,32.6328223 9.31025117,47.036425 20.9906022,53.1272149" id="Shape" fill="#009ADC"></path>
                    <path d="M32.0214153,25.6488209 C35.5348223,25.6488209 38.3830013,28.4969995 38.3830013,32.0104059 C38.3830013,35.5238122 35.5348223,38.3719908 32.0214153,38.3719908 C28.5080084,38.3719908 25.6598293,35.5238122 25.6598293,32.0104059 C25.6598293,28.4969995 28.5080084,25.6488209 32.0214153,25.6488209 M32.0214153,17.5484028 C26.1744464,17.5398232 20.898436,21.0553491 18.6549505,26.4547825 C16.411465,31.854216 17.642626,38.0734959 21.7740251,42.2109655 C25.9054243,46.348435 32.1228906,47.5887271 37.5256136,45.3531731 C42.9283365,43.117619 46.4516066,37.8467775 46.4516129,31.9998032 C46.4457886,24.0292038 39.991999,17.5659313 32.0214153,17.5484028" id="Shape" fill="#0046AD"></path>
                </g>
            </g>
        </g>
    </g>
</svg>