<?xml version="1.0" encoding="UTF-8"?>
<svg width="62px" height="63px" viewBox="0 0 62 63" version="1.1" xmlns="http://www.w3.org/2000/svg" xmlns:xlink="http://www.w3.org/1999/xlink">
    <!-- Generator: Sketch 51.2 (57519) - http://www.bohemiancoding.com/sketch -->
    <title>Group 12</title>
    <desc>Created with Sketch.</desc>
    <defs></defs>
    <g id="Fabrick-v4" stroke="none" stroke-width="1" fill="none" fill-rule="evenodd">
        <g id="✅-Home-v4" transform="translate(-238.000000, -1478.000000)" fill-rule="nonzero">
            <g id="Group-2-Copy" transform="translate(214.000000, 1128.000000)">
                <g id="Group-12" transform="translate(24.000000, 350.000000)">
                    <path d="M60.8954147,16.3987803 C57.8473227,6.69534737 48.7506789,0.174161326 38.5796433,0.401089314 C28.4086078,0.628017302 19.612034,7.54842247 17,17.3781396 C19.0665091,16.8300759 21.2000738,16.5764549 23.3375182,16.6247863 C24.1940135,14.5888682 25.4349054,12.7370163 26.9923296,11.1705084 C31.8886171,6.30031592 39.2309591,4.84487472 45.6156274,7.47889137 C52.0002957,10.112908 56.1790374,16.3214115 56.2146912,23.2262932 C56.2503451,30.1311749 52.1359404,36.3824761 45.7788135,39.0822482 C45.8240327,41.2114837 45.5703733,43.3365404 45.0252442,45.3953488 C45.349279,45.31248 45.6657781,45.2446782 45.9898129,45.1467422 C58.0480061,41.3363574 64.7367792,28.4785763 60.9330932,16.4213809" id="Shape" fill="#009ADC"></path>
                    <path d="M38.8121434,45.8634605 C35.796696,52.9923896 28.3859435,57.2211266 20.7175094,56.1886534 C13.0490752,55.1561801 7.01946235,49.1178406 5.9951666,41.4450029 C4.97087084,33.7721652 9.20521377,26.3624215 16.3340473,23.3528318 C16.2871137,21.2102951 16.5412839,19.0717856 17.089106,17 C16.7644307,17.0906468 16.4322049,17.151078 16.1075297,17.2568327 C5.58266802,20.5477932 -1.1158776,30.8610751 0.153926216,41.8194795 C1.42373003,52.7778838 10.303029,61.2844991 21.301325,62.0792754 C32.2996209,62.8740517 42.3087287,55.7323804 45.1395349,45.0703008 C43.0665045,45.6205534 40.9261312,45.8748661 38.781941,45.825691" id="Shape" fill="#009ADC"></path>
                    <path d="M45.0726415,32.2150215 C41.3869996,20.4553954 29.0707069,13.7022798 17.1691207,16.915312 C15.0217517,24.8548337 17.2843485,33.3361375 23.1014583,39.1525735 C28.9185681,44.9690095 37.4025284,47.2330181 45.345685,45.0886125 C46.4901876,40.854737 46.3954239,36.3815054 45.0726415,32.1998582 M22.9485398,28.0223855 C22.3290628,26.0504673 22.0720953,23.9826752 22.1900859,21.9191813 C27.0732971,21.6497796 31.8397353,23.4745912 35.2935946,26.9358067 C38.747454,30.3970223 40.5609865,35.1661958 40.2792126,40.0468351 C32.4309429,40.4546005 25.2977124,35.511878 22.9257862,28.0223855" id="Shape" fill="#0046AD"></path>
                </g>
            </g>
        </g>
    </g>
</svg>