<?xml version="1.0" encoding="UTF-8"?>
<svg width="141px" height="54px" viewBox="0 0 141 54" version="1.1" xmlns="http://www.w3.org/2000/svg" xmlns:xlink="http://www.w3.org/1999/xlink">
    <!-- Generator: Sketch 51.2 (57519) - http://www.bohemiancoding.com/sketch -->
    <title>fabrick_platform_logo</title>
    <desc>Created with Sketch.</desc>
    <defs></defs>
    <g id="Fabrick-v4" stroke="none" stroke-width="1" fill="none" fill-rule="evenodd">
        <g id="✅-Home-v4" transform="translate(-200.000000, -4104.000000)" fill-rule="nonzero">
            <g id="fabrick_platform_logo" transform="translate(200.000000, 4104.000000)">
                <path d="M87.6996885,1.74805714 C86.3871557,1.74805714 85.3192541,2.81725714 85.3192541,4.131 C85.3192541,5.44551429 86.3871557,6.51471429 87.6996885,6.51471429 C89.0122213,6.51471429 90.080123,5.44551429 90.080123,4.131 C90.080123,2.81725714 89.0122213,1.74805714 87.6996885,1.74805714 Z M87.6996885,8.26277143 C85.4244262,8.26277143 83.5733197,6.40941429 83.5733197,4.131 C83.5733197,1.85335714 85.4244262,0 87.6996885,0 C89.9749508,0 91.8260574,1.85335714 91.8260574,4.131 C91.8260574,6.40941429 89.9749508,8.26277143 87.6996885,8.26277143 Z" id="Fill-1" fill="#00A9E0"></path>
                <path d="M4.20765574,8.23152857 C4.20765574,4.19078571 6.82655738,0.751757143 12.2369508,0.751757143 C13.3961557,0.751757143 14.6840328,0.923785714 16.1437295,1.26745714 L16.1437295,6.38318571 C15.1994918,5.95311429 14.2117213,5.69507143 13.438918,5.69507143 C11.5928197,5.69507143 10.690959,6.72685714 10.690959,8.53238571 L10.690959,9.69338571 L15.7145656,9.69338571 L15.7145656,14.1638143 L10.690959,14.1638143 L10.690959,33.4225286 L4.20765574,33.4225286 L4.20765574,14.1638143 L0,14.1638143 L0,9.69338571 L4.20765574,9.69338571 L4.20765574,8.23152857" id="Fill-2" fill="#0046AD"></path>
                <path d="M48.3152295,22.4601429 C48.3152295,26.3288571 49.9895082,28.3496143 53.1666311,28.3496143 C56.0005,28.3496143 58.0619508,26.4148714 58.0619508,21.5575714 C58.0619508,16.6995 56.0005,14.7655286 53.1666311,14.7655286 C52.1360984,14.7655286 51.234623,14.9799857 50.5477295,15.4528714 L50.5477295,10.2943286 C51.7069344,9.77901429 53.0807213,9.39175714 54.4548934,9.39175714 C60.2944508,9.39175714 64.7166885,12.6155571 64.7166885,21.4283571 C64.7166885,29.5958571 60.4227377,33.7226143 54.1112541,33.7226143 C51.5355,33.7226143 49.4744344,32.6055857 48.3152295,31.1005286 L48.3152295,33.4221429 L41.8319262,33.4221429 L41.8319262,1.61074286 L48.3152295,1.61074286 L48.3152295,22.4601429" id="Fill-3" fill="#0046AD"></path>
                <path d="M74.5493197,33.4225286 L68.0656311,33.4225286 L68.0656311,9.69338571 L74.4202623,9.69338571 L74.4202623,13.9061571 C75.9654836,10.5959571 78.7134426,9.13448571 81.0753852,9.13448571 C81.4182541,9.13448571 81.805041,9.1773 82.1922131,9.26331429 L82.1922131,16.3562143 C81.4614016,16.1413714 80.6885984,15.9693429 80.0020902,15.9693429 C77.0391639,15.9693429 74.5493197,17.9469 74.5493197,21.7724143 L74.5493197,33.4225286" id="Fill-4" fill="#0046AD"></path>
                <polygon id="Fill-5" fill="#0046AD" points="84.4798033 33.4225286 90.9631066 33.4225286 90.9631066 9.69338571 84.4798033 9.69338571"></polygon>
                <path d="M115.866943,24.4377 C115.137287,30.5848286 111.101066,33.7226143 105.175213,33.7226143 C98.4780984,33.7226143 94.0127131,29.6818714 94.0127131,21.6435857 C94.0127131,13.6045286 98.6930656,9.34855714 105.39018,9.34855714 C111.186975,9.34855714 115.223197,12.4871143 115.781033,18.8062714 L109.29773,18.8062714 C108.910943,15.8397429 107.494393,14.7223286 105.30427,14.7223286 C102.513549,14.7223286 100.667066,16.6995 100.667066,21.5575714 C100.667066,26.3716714 102.556311,28.3496143 105.218361,28.3496143 C107.279426,28.3496143 108.910943,27.2746286 109.383639,24.4377 L115.866943,24.4377" id="Fill-6" fill="#0046AD"></path>
                <path d="M132.32927,20.2685143 L140.915631,33.4225286 L133.444557,33.4225286 L125.330123,21.0850714 L133.015779,9.69338571 L139.841951,9.69338571 L132.32927,20.2685143 Z M118.803672,33.4221429 L125.286975,33.4221429 L125.286975,1.61112857 L118.803672,1.61112857 L118.803672,33.4221429 Z" id="Fill-7" fill="#0046AD"></path>
                <path d="M28.0586148,9.39175714 C21.5641393,9.39175714 17.7790984,12.7077429 17.7790984,17.9615571 L23.9295492,17.9615571 C23.9295492,16.5834 24.6607459,14.6023714 27.8436475,14.6023714 C30.2525902,14.6023714 31.4568689,15.8081143 31.4568689,17.7459429 L31.4568689,24.7223571 C31.4568689,27.0910286 29.865418,28.9424571 27.1555984,28.9424571 C24.9188607,28.9424571 23.9726967,27.4786714 23.9726967,26.4017571 C23.9726967,25.4116286 24.5316885,24.5935286 25.7359672,24.0762857 L29.0483115,22.7845286 L29.0483115,18.2628 L23.8867869,19.8561857 C20.402623,20.9327143 17.2628689,22.6985143 17.2628689,27.0050143 C17.2628689,30.9666857 20.3598607,33.7226143 24.8329508,33.7226143 C28.6611393,33.7226143 30.6825246,31.8279857 31.4568689,30.8374714 L31.4568689,33.4213714 L37.9944918,33.4213714 L37.9944918,17.2294714 C37.9944918,11.9324571 34.2957459,9.39175714 28.0586148,9.39175714" id="Fill-8" fill="#0046AD"></path>
                <path d="M5.62381967,46.0770429 C5.62381967,48.6867857 6.88164754,49.8724714 8.61332787,49.8724714 C10.2895328,49.8724714 11.6201721,48.8144571 11.6201721,46.0770429 C11.6201721,43.3396286 10.2895328,42.2816143 8.61332787,42.2816143 C6.88164754,42.2816143 5.62381967,43.4673 5.62381967,46.0770429 Z M4.20264754,53.9055 L4.20264754,41.2043143 L5.64269672,41.2043143 L5.64269672,43.0476429 C6.15314754,41.8253143 7.28268852,41.0770286 8.8502541,41.0770286 C11.4379508,41.0770286 13.0783279,42.9022286 13.0783279,46.0770429 C13.0783279,49.2518571 11.4560574,51.0770571 8.79554918,51.0770571 C7.22798361,51.0770571 6.15314754,50.3287714 5.64269672,49.1064429 L5.64269672,53.9055 L4.20264754,53.9055 Z" id="Fill-9" fill="#00A9E0"></path>
                <polygon id="Fill-10" fill="#00A9E0" points="15.3732377 50.9308714 16.8132869 50.9308714 16.8132869 37.4274 15.3732377 37.4274"></polygon>
                <path d="M25.3553443,45.3287571 C24.8995984,46.1680714 23.1864098,46.2413571 21.873877,46.5514714 C21.0178607,46.7520429 20.4527049,47.3545286 20.4527049,48.2304857 C20.4527049,49.2159857 21.1812049,50.0182714 22.6035328,50.0182714 C24.1160082,50.0182714 25.3553443,49.0694143 25.3553443,47.1902143 L25.3553443,45.3287571 Z M22.1296803,51.0951857 C20.1610738,51.0951857 18.9579508,49.8358286 18.9579508,48.3033857 C18.9579508,46.7705571 20.0335574,45.9493714 21.3634262,45.6026143 C23.3509098,45.0915429 25.3734508,45.3835286 25.3734508,43.7774143 C25.3734508,42.9751286 24.6992705,42.2268429 23.167918,42.2268429 C21.4917131,42.2268429 20.5621148,43.1753143 20.3066967,44.0331429 L19.1767705,43.4125286 C19.595918,42.2993571 20.8537459,41.0770286 23.2045164,41.0770286 C25.3553443,41.0770286 26.7769016,42.0073714 26.7769016,43.9965 L26.7769016,49.1789571 C26.7769016,49.8358286 27.0504262,50.0367857 27.4872951,50.0367857 C27.7430984,50.0367857 27.9253197,49.9820143 28.1441393,49.8724714 L28.1441393,50.9127429 C27.8336311,51.0585429 27.4514672,51.1314429 27.1051311,51.1314429 C26.0295246,51.1314429 25.4462623,50.4745714 25.4462623,49.4890714 L25.4462623,49.1970857 C25.0637131,50.2007143 24.0065984,51.0951857 22.1296803,51.0951857 Z" id="Fill-11" fill="#00A9E0"></path>
                <path d="M31.4449262,41.2043143 L33.9783033,41.2043143 L33.9783033,42.2634857 L31.4449262,42.2634857 L31.4449262,48.5953714 C31.4449262,49.5438429 31.9368852,49.8547286 32.6114508,49.8547286 C33.0853033,49.8547286 33.5772623,49.7081571 34.0507295,49.4532 L34.0507295,50.6022429 C33.6319672,50.8942286 32.9570164,51.0404143 32.2104098,51.0404143 C30.9891803,51.0404143 30.004877,50.3835429 30.004877,48.9421286 L30.004877,42.2634857 L28.455418,42.2634857 L28.455418,41.2043143 L29.4216148,41.2043143 C29.9501721,41.2043143 30.0957951,40.9671 30.0957951,40.5297 L30.0957951,38.7777857 L31.4449262,38.7777857 L31.4449262,41.2043143" id="Fill-12" fill="#00A9E0"></path>
                <path d="M37.3245492,39.9457286 C37.3245492,38.2304571 38.4729672,37.2449571 40.0771311,37.2449571 C40.5690902,37.2449571 41.0976475,37.3359857 41.5899918,37.5184286 L41.5899918,38.7596571 C41.1342459,38.5039286 40.6785,38.3943857 40.2227541,38.3943857 C39.3297541,38.3943857 38.7464918,38.9602286 38.7464918,40.0186286 L38.7464918,41.2043143 L41.170459,41.2043143 L41.170459,42.2634857 L38.7464918,42.2634857 L38.7464918,50.9308714 L37.3245492,50.9308714 L37.3245492,42.2634857 L35.3020082,42.2634857 L35.3020082,41.2043143 L37.3245492,41.2043143 L37.3245492,39.9457286" id="Fill-13" fill="#00A9E0"></path>
                <path d="M43.5697705,46.0770429 C43.5697705,48.7774286 44.9004098,49.8724714 46.5592787,49.8724714 C48.2543607,49.8724714 49.5846148,48.7774286 49.5846148,46.0770429 C49.5846148,43.3577571 48.2543607,42.2816143 46.5592787,42.2816143 C44.9004098,42.2816143 43.5697705,43.3577571 43.5697705,46.0770429 Z M42.1116148,46.0770429 C42.1116148,42.9203571 43.8432951,41.0770286 46.5592787,41.0770286 C49.2929836,41.0770286 51.0427705,42.9203571 51.0427705,46.0770429 C51.0427705,49.2337286 49.2929836,51.0770571 46.5592787,51.0770571 C43.8432951,51.0770571 42.1116148,49.2337286 42.1116148,46.0770429 Z" id="Fill-14" fill="#00A9E0"></path>
                <path d="M54.7118525,50.9308714 L53.2718033,50.9308714 L53.2718033,41.2043143 L54.6752541,41.2043143 L54.6752541,43.3396286 C55.2038115,41.9348571 56.3522295,41.0222571 57.6639918,41.0222571 C58.0473115,41.0222571 58.5207787,41.1136714 58.8852213,41.3508857 L58.8852213,42.9751286 C58.4302459,42.5913429 57.8650902,42.4818 57.4093443,42.4818 C55.9511885,42.4818 54.7118525,43.7045143 54.7118525,46.0589143 L54.7118525,50.9308714" id="Fill-15" fill="#00A9E0"></path>
                <path d="M62.1012541,50.9308714 L60.6612049,50.9308714 L60.6612049,41.2043143 L62.1012541,41.2043143 L62.1012541,42.8655857 C62.483418,41.8619571 63.6688197,41.0770286 65.0899918,41.0770286 C66.6756639,41.0770286 67.6599672,41.7882857 68.0429016,42.9381 C68.6619918,41.6606143 69.8651148,41.0770286 71.1957541,41.0770286 C73.5103115,41.0770286 74.5493197,42.4459286 74.5493197,44.4709286 L74.5493197,50.9308714 L73.1096557,50.9308714 L73.1096557,44.6718857 C73.1096557,42.9381 72.1615656,42.2816143 70.9222295,42.2816143 C69.4463525,42.2816143 68.3156557,43.2482143 68.3156557,45.2010857 L68.3156557,50.9308714 L66.876377,50.9308714 L66.876377,44.6718857 C66.876377,42.9381 65.9101803,42.2816143 64.6889508,42.2816143 C63.1949672,42.2816143 62.1012541,43.2482143 62.1012541,45.2010857 L62.1012541,50.9308714" id="Fill-16" fill="#00A9E0"></path>
            </g>
        </g>
    </g>
</svg>