<?xml version="1.0" encoding="UTF-8"?>
<svg width="153px" height="36px" viewBox="0 0 153 36" version="1.1" xmlns="http://www.w3.org/2000/svg" xmlns:xlink="http://www.w3.org/1999/xlink">
    <!-- Generator: Sketch 51.2 (57519) - http://www.bohemiancoding.com/sketch -->
    <title>logo-preload</title>
    <desc>Created with Sketch.</desc>
    <defs></defs>
    <g id="Page-1" stroke="none" stroke-width="1" fill="none" fill-rule="evenodd" opacity="0.235658">
        <g id="logo-preload" fill="#FFFFFF" fill-rule="nonzero">
            <g id="Fabrick-v5">
                <g id="✅-Home-v4">
                    <g id="Logo" style="mix-blend-mode: luminosity;">
                        <g id="Group-2">
                            <g id="Group">
                                <path d="M95.1097603,8.71956252 C93.2960902,8.72542518 91.6576529,7.6669365 90.9594123,6.03829037 C90.2611717,4.40964424 90.6408495,2.53207645 91.9211793,1.28219774 C93.2015091,0.0323190308 95.1299574,-0.343343273 96.806158,0.330602424 C98.4823586,1.00454812 99.5756961,2.59517209 99.5757061,4.35983375 C99.5743587,6.76145291 97.5780729,8.71025943 95.1097603,8.71956252 M95.1097603,1.84683395 C94.0636586,1.84585762 93.1200514,2.45836039 92.7192619,3.39852494 C92.3184725,4.33868948 92.5395009,5.42119895 93.2792068,6.1409128 C94.0189127,6.86062665 95.1314919,7.07568132 96.0977721,6.68572402 C97.0640523,6.29576673 97.6935691,5.37766238 97.6925656,4.35983375 C97.6911979,2.97249389 96.5356374,1.84816473 95.1097603,1.84683395" id="Shape"></path>
                                <path d="M4.56270802,8.69300825 C4.56270802,4.42984047 7.4035458,0.801561217 13.2688214,0.801561217 C14.6987851,0.821745691 16.1215812,1.00238249 17.5089888,1.33988874 L17.5089888,6.73523415 C16.5915397,6.30414807 15.5940459,6.05781951 14.5763511,6.01102671 C12.5741187,6.01102671 11.5990538,7.09975189 11.5990538,9.00441745 L11.5990538,10.228328 L17.0574321,10.228328 L17.0574321,14.9453324 L11.5990538,14.9453324 L11.5990538,35.2641791 L4.56270802,35.2641791 L4.56270802,14.9453324 L0,14.9453324 L0,10.228328 L4.56270802,10.228328 L4.56270802,8.69300825 Z" id="Shape"></path>
                                <path d="M52.3979503,23.6985863 C52.3979503,27.7807022 54.2141016,29.9122861 57.6578421,29.9122861 C60.7319015,29.9122861 62.9673555,27.8700212 62.9673555,22.7474606 C62.9673555,17.6249 60.7343826,15.580221 57.6578421,15.580221 C56.5388746,15.580221 55.5613286,15.8071393 54.8170043,16.3044284 L54.8170043,10.8656306 C56.1448391,10.264502 57.5856582,9.93580843 59.0497286,9.90002064 C65.3814473,9.90002064 70.1798581,13.3013816 70.1798581,22.6002051 C70.1798581,31.2158595 65.522869,35.5707602 58.6775664,35.5707602 C55.8838692,35.5707602 53.6484152,34.3927161 52.3929881,32.8042878 L52.3929881,35.254523 L45.3665667,35.254523 L45.3665667,1.69233636 L52.3979503,1.69233636 L52.3979503,23.6985863 Z" id="Shape"></path>
                                <path d="M80.8460254,35.2641791 L73.8171229,35.2641791 L73.8171229,10.228328 L80.7070849,10.228328 L80.7070849,14.6749617 C82.3842957,11.1818678 85.364074,9.63930596 87.9245496,9.63930596 C88.3319321,9.64233408 88.7378194,9.68765246 89.1353171,9.77449135 L89.1353171,17.2579682 C88.3667851,17.0168383 87.5678531,16.8795652 86.7609226,16.849998 C83.5479227,16.849998 80.8460254,18.9357154 80.8460254,22.9719649 L80.8460254,35.2617651 L80.8460254,35.2641791 Z" id="Shape"></path>
                                <rect id="Rectangle-path" x="91.6163982" y="10.228328" width="7.03138364" height="25.0358511"></rect>
                                <path d="M125.654349,25.7843037 C124.862884,32.2707883 120.486257,35.5804163 114.060257,35.5804163 C106.798133,35.5804163 101.955063,31.3172486 101.955063,22.8367795 C101.955063,14.3563104 107.028874,9.86381027 114.293479,9.86381027 C120.580538,9.86381027 124.962127,13.1758523 125.562549,19.8409747 L118.531165,19.8409747 C118.111863,16.7027425 116.576073,15.5319405 114.201679,15.5319405 C111.17476,15.5343545 109.167565,17.6249 109.167565,22.7450465 C109.167565,27.8144986 111.216938,29.9098721 114.104917,29.9098721 C116.33789,29.9098721 118.109381,28.7752805 118.622965,25.7818897 L125.654349,25.7818897 L125.654349,25.7843037 Z" id="Shape"></path>
                                <path d="M135.871441,35.2641791 L128.840057,35.2641791 L128.840057,1.69233636 L135.871441,1.69233636 L135.871441,35.2472809 L135.871441,35.2641791 Z M143.508208,21.3859506 L152.819705,35.2641791 L144.718976,35.2641791 L135.918581,22.2477574 L144.252532,10.228328 L151.656078,10.228328 L143.508208,21.3859506 Z" id="Shape"></path>
                                <path d="M30.4304589,9.90002064 C23.3866698,9.90002064 19.2804807,13.4100127 19.2804807,18.9526136 L25.9496265,18.9526136 C25.9496265,17.5041987 26.7435724,15.4088252 30.1947562,15.4088252 C32.8073345,15.4088252 34.1123831,16.6810163 34.1123831,18.7256953 L34.1123831,26.0739867 C34.1123831,28.5725024 32.3756264,30.5254484 29.4479508,30.5254484 C27.0214535,30.5254484 25.9967671,28.9804726 25.9967671,27.8458809 C25.9967671,26.8006082 26.6046319,25.9388013 27.9096805,25.3932317 L31.5097291,24.0413778 L31.5097291,19.2712649 L25.9124103,20.9610822 C22.1337239,22.0956739 18.7172753,23.959301 18.7172753,28.5024957 C18.7172753,32.6811726 22.076659,35.5900724 26.9271724,35.5900724 C31.078021,35.5900724 33.2712966,33.5912599 34.1223074,32.5459872 L34.1223074,35.2714212 L41.213237,35.2714212 L41.213237,18.1801257 C41.213237,12.5916583 37.201329,9.91209077 30.4379021,9.91209077" id="Shape"></path>
                            </g>
                        </g>
                    </g>
                </g>
            </g>
        </g>
    </g>
</svg>