<?xml version="1.0" encoding="UTF-8"?>
<svg width="102px" height="24px" viewBox="0 0 102 24" version="1.1" xmlns="http://www.w3.org/2000/svg" xmlns:xlink="http://www.w3.org/1999/xlink">
    <!-- Generator: Sketch 51.2 (57519) - http://www.bohemiancoding.com/sketch -->
    <title>Logo</title>
    <desc>Created with Sketch.</desc>
    <defs></defs>
    <g id="Symbols" stroke="none" stroke-width="1" fill="none" fill-rule="evenodd">
        <g id="Nav-/-Base" transform="translate(-212.000000, -21.000000)">
            <g id="Group-3">
                <g id="Group-7">
                    <g id="Group">
                        <g id="Logo" transform="translate(212.000000, 21.000000)">
                            <g id="Group-2">
                                <g id="Group" fill-rule="nonzero">
                                    <path d="M63.4065068,5.97451506 C62.1973935,5.97853207 61.105102,5.25327131 60.6396082,4.13734711 C60.1741145,3.0214229 60.427233,1.73494127 61.2807862,0.878542896 C62.1343394,0.0221445211 63.4199716,-0.235253724 64.5374387,0.226523883 C65.6549058,0.68830149 66.3837974,1.77817347 66.3838041,2.9872935 C66.3829058,4.63284737 65.0520486,5.96814072 63.4065068,5.97451506 M63.4065068,1.26542326 C62.7091058,1.26475429 62.0800343,1.68443212 61.8128413,2.32861894 C61.5456483,2.97280575 61.6930006,3.7145252 62.1861379,4.20766247 C62.6792751,4.70079974 63.4209946,4.84815201 64.0651814,4.58095905 C64.7093682,4.31376609 65.1290461,3.68469459 65.1283771,2.9872935 C65.1274653,2.03670878 64.3570916,1.26633509 63.4065068,1.26542326" id="Shape" fill="#00A9E0"></path>
                                    <path d="M3.04180534,5.95632047 C3.04180534,3.03526106 4.9356972,0.549217871 8.84588091,0.549217871 C9.79919008,0.563047974 10.7477208,0.686817633 11.6726592,0.918071918 L11.6726592,4.61488266 C11.0610265,4.31950886 10.3960306,4.15072818 9.71756737,4.11866645 C8.38274578,4.11866645 7.73270255,4.86464481 7.73270255,6.16969344 L7.73270255,7.00829882 L11.3716214,7.00829882 L11.3716214,10.2403204 L7.73270255,10.2403204 L7.73270255,24.1624931 L3.04180534,24.1624931 L3.04180534,10.2403204 L0,10.2403204 L0,7.00829882 L3.04180534,7.00829882 L3.04180534,5.95632047 Z" id="Shape" fill="#0046AD"></path>
                                    <path d="M34.9319669,16.2379203 C34.9319669,19.0349256 36.1427344,20.4954553 38.4385614,20.4954553 C40.4879343,20.4954553 41.978237,19.0961256 41.978237,15.586223 C41.978237,12.0763203 40.4895884,10.6753366 38.4385614,10.6753366 C37.692583,10.6753366 37.0408858,10.8308177 36.5446695,11.1715528 L36.5446695,7.44496909 C37.4298928,7.03308469 38.3904388,6.80786874 39.3664857,6.78334748 C43.5876316,6.78334748 46.786572,9.11390959 46.786572,15.4853257 C46.786572,21.3886445 43.6819126,24.3725579 39.1183776,24.3725579 C37.2559128,24.3725579 35.7656101,23.5653796 34.9286588,22.477012 L34.9286588,24.1558769 L30.2443778,24.1558769 L30.2443778,1.1595638 L34.9319669,1.1595638 L34.9319669,16.2379203 Z" id="Shape" fill="#0046AD"></path>
                                    <path d="M53.8973503,24.1624931 L49.2114152,24.1624931 L49.2114152,7.00829882 L53.8047233,7.00829882 L53.8047233,10.0550663 C54.9228638,7.66165016 56.9093827,6.60470964 58.6163664,6.60470964 C58.8879548,6.60678446 59.1585463,6.63783595 59.4235448,6.69733667 L59.4235448,11.8249041 C58.9111901,11.6596855 58.3785687,11.565628 57.8406151,11.545369 C55.6986151,11.545369 53.8973503,12.9744717 53.8973503,15.74005 L53.8973503,24.160839 L53.8973503,24.1624931 Z" id="Shape" fill="#0046AD"></path>
                                    <rect id="Rectangle-path" fill="#0046AD" x="61.0775988" y="7.00829882" width="4.6875891" height="17.1541943"></rect>
                                    <path d="M83.7695659,17.6670229 C83.2419227,22.1114661 80.3241714,24.3791742 76.0401715,24.3791742 C71.1987553,24.3791742 67.9700419,21.4581148 67.9700419,15.647423 C67.9700419,9.8367312 71.3525824,6.75853667 76.1956525,6.75853667 C80.3870254,6.75853667 83.3080848,9.02789878 83.7083659,13.5947419 L79.0207768,13.5947419 C78.7412417,11.4444717 77.7173822,10.6422555 76.1344525,10.6422555 C74.1165066,10.6439096 72.7783769,12.0763203 72.7783769,15.5845689 C72.7783769,19.0580824 74.1446256,20.4938013 76.0699444,20.4938013 C77.5585931,20.4938013 78.7395876,19.7163959 79.0819768,17.6653689 L83.7695659,17.6653689 L83.7695659,17.6670229 Z" id="Shape" fill="#0046AD"></path>
                                    <path d="M90.5809604,24.1624931 L85.8933713,24.1624931 L85.8933713,1.1595638 L90.5809604,1.1595638 L90.5809604,24.1509147 L90.5809604,24.1624931 Z M95.6721386,14.6533365 L101.879803,24.1624931 L96.479317,24.1624931 L90.6123874,15.2438338 L96.1683548,7.00829882 L101.104052,7.00829882 L95.6721386,14.6533365 Z" id="Shape" fill="#0046AD"></path>
                                    <path d="M20.2869726,6.78334748 C15.5911132,6.78334748 12.8536538,9.18834202 12.8536538,12.9860501 L17.299751,12.9860501 C17.299751,11.9936176 17.8290483,10.5578988 20.1298374,10.5578988 C21.8715563,10.5578988 22.7415887,11.4295852 22.7415887,12.830569 L22.7415887,17.8655094 C22.7415887,19.5774553 21.5837509,20.915585 19.6319672,20.915585 C18.0143023,20.915585 17.331178,19.8569905 17.331178,19.0795851 C17.331178,18.3633797 17.7364213,17.7728824 18.6064537,17.3990662 L21.0064861,16.4727959 L21.0064861,13.2043852 L17.2749402,14.362223 C14.7558159,15.1396284 12.4781835,16.4165581 12.4781835,19.5294878 C12.4781835,22.3926553 14.7177727,24.3857904 17.9514483,24.3857904 C20.7186807,24.3857904 22.1808644,23.0162336 22.748205,22.3000282 L22.748205,24.1674552 L27.4754913,24.1674552 L27.4754913,12.4567528 C27.4754913,8.62761771 24.800886,6.79161775 20.2919347,6.79161775" id="Shape" fill="#0046AD"></path>
                                </g>
                            </g>
                        </g>
                    </g>
                </g>
            </g>
        </g>
    </g>
</svg>